<svg width="60" height="60" viewBox="0 0 60 60" fill="none" xmlns="http://www.w3.org/2000/svg">
<path fill-rule="evenodd" clip-rule="evenodd" d="M28.461 37.7196L27.5624 19.4304H32.4374L31.5007 37.7196H28.461ZM29.941 44.85C29.2874 44.85 28.7276 44.617 28.2615 44.1509C27.7955 43.6848 27.5624 43.1304 27.5624 42.4875C27.5624 41.8339 27.7955 41.2768 28.2615 40.8161C28.7276 40.3554 29.2874 40.125 29.941 40.125C30.5731 40.125 31.1222 40.3527 31.5883 40.808C32.0544 41.2634 32.2874 41.8232 32.2874 42.4875C32.2874 43.1411 32.0517 43.6982 31.5803 44.1589C31.1089 44.6196 30.5624 44.85 29.941 44.85ZM7.49993 52.5C4.65345 52.5 2.84478 49.4532 4.20782 46.9543L26.7078 5.7043C28.1291 3.09857 31.8707 3.09857 33.292 5.7043L55.792 46.9543C57.1551 49.4532 55.3464 52.5 52.4999 52.5H7.49993ZM7.49993 48.75H52.4999L29.9999 7.5L7.49993 48.75Z" fill="#A42E27"/>
</svg>
