<svg width="29" height="32" viewBox="0 0 29 32" fill="none" xmlns="http://www.w3.org/2000/svg">
<g id="Frame">
<path id="Vector" d="M23.5028 29.4988H21.1525V26.9977C21.1525 24.9256 19.5742 23.246 17.6271 23.246H10.5762C8.62922 23.246 7.05084 24.9256 7.05084 26.9977V29.4988H4.70056V26.9977C4.70056 23.5443 7.3312 20.7448 10.5762 20.7448H17.6271C20.8721 20.7448 23.5028 23.5443 23.5028 26.9977V29.4988ZM14.1017 18.2437C10.2076 18.2437 7.05084 14.8842 7.05084 10.7402C7.05084 6.59616 10.2076 3.23676 14.1017 3.23676C17.9957 3.23676 21.1525 6.59616 21.1525 10.7402C21.1525 14.8842 17.9957 18.2437 14.1017 18.2437ZM14.1017 15.7425C16.6977 15.7425 18.8022 13.5029 18.8022 10.7402C18.8022 7.97751 16.6977 5.7379 14.1017 5.7379C11.5056 5.7379 9.40111 7.97751 9.40111 10.7402C9.40111 13.5029 11.5056 15.7425 14.1017 15.7425Z" fill="#D9D9D9"/>
</g>
</svg>
