<svg width="21" height="21" viewBox="0 0 21 21" fill="none" xmlns="http://www.w3.org/2000/svg">
<g id="eva:eye-off-2-outline">
<path id="Vector" d="M15.5838 11.7162C17.1242 10.4509 18.1227 8.64478 18.3751 6.66743C18.3888 6.55252 18.3799 6.43603 18.3486 6.32459C18.3174 6.21315 18.2645 6.10896 18.193 6.01796C18.1215 5.92696 18.0328 5.85093 17.9319 5.79422C17.831 5.73751 17.72 5.70122 17.6051 5.68743C17.4901 5.67364 17.3736 5.68262 17.2622 5.71385C17.1508 5.74509 17.0466 5.79796 16.9556 5.86947C16.8646 5.94097 16.7885 6.02969 16.7318 6.13057C16.6751 6.23146 16.6388 6.34252 16.6251 6.45743C16.4159 7.93293 15.6811 9.28332 14.5558 10.2603C13.4305 11.2374 11.9903 11.7753 10.5001 11.7753C9.0098 11.7753 7.56963 11.2374 6.44433 10.2603C5.31903 9.28332 4.58424 7.93293 4.37505 6.45743C4.36126 6.34252 4.32498 6.23146 4.26826 6.13057C4.21155 6.02969 4.13553 5.94097 4.04452 5.86947C3.95352 5.79796 3.84933 5.74509 3.73789 5.71385C3.62646 5.68262 3.50996 5.67364 3.39505 5.68743C3.28015 5.70122 3.16908 5.73751 3.0682 5.79422C2.96731 5.85093 2.87859 5.92696 2.80709 6.01796C2.73559 6.10896 2.68271 6.21315 2.65148 6.32459C2.62024 6.43603 2.61126 6.55252 2.62505 6.66743C2.87516 8.64348 3.87046 10.4494 5.40755 11.7162L3.39505 13.7462C3.2517 13.9136 3.1768 14.1289 3.1853 14.3491C3.19381 14.5693 3.2851 14.7782 3.44093 14.934C3.59677 15.0899 3.80566 15.1812 4.02588 15.1897C4.2461 15.1982 4.46141 15.1233 4.6288 14.9799L6.91255 12.7049C7.7607 13.1348 8.6797 13.4076 9.62505 13.5099V16.6249C9.62505 16.857 9.71724 17.0796 9.88133 17.2436C10.0454 17.4077 10.268 17.4999 10.5001 17.4999C10.7321 17.4999 10.9547 17.4077 11.1188 17.2436C11.2829 17.0796 11.3751 16.857 11.3751 16.6249V13.5099C12.3204 13.4076 13.2394 13.1348 14.0876 12.7049L16.3713 14.9799C16.5387 15.1233 16.754 15.1982 16.9742 15.1897C17.1944 15.1812 17.4033 15.0899 17.5592 14.934C17.715 14.7782 17.8063 14.5693 17.8148 14.3491C17.8233 14.1289 17.7484 13.9136 17.6051 13.7462L15.5838 11.7162Z" fill="#F3F3F3"/>
</g>
</svg>
