<svg width="21" height="21" viewBox="0 0 21 21" fill="none" xmlns="http://www.w3.org/2000/svg">
<g id="eva:eye-off-2-outline">
<path id="Vector" d="M15.5838 9.28382C17.1242 10.5491 18.1227 12.3552 18.3751 14.3326C18.3888 14.4475 18.3799 14.564 18.3486 14.6754C18.3174 14.7868 18.2645 14.891 18.193 14.982C18.1215 15.073 18.0328 15.1491 17.9319 15.2058C17.831 15.2625 17.72 15.2988 17.6051 15.3126C17.4901 15.3264 17.3736 15.3174 17.2622 15.2861C17.1508 15.2549 17.0466 15.202 16.9556 15.1305C16.8646 15.059 16.7885 14.9703 16.7318 14.8694C16.6751 14.7685 16.6388 14.6575 16.6251 14.5426C16.4159 13.0671 15.6811 11.7167 14.5558 10.7397C13.4305 9.76265 11.9903 9.22469 10.5001 9.22469C9.0098 9.22469 7.56963 9.76265 6.44433 10.7397C5.31903 11.7167 4.58424 13.0671 4.37505 14.5426C4.36126 14.6575 4.32498 14.7685 4.26826 14.8694C4.21155 14.9703 4.13553 15.059 4.04452 15.1305C3.95352 15.202 3.84933 15.2549 3.73789 15.2861C3.62646 15.3174 3.50996 15.3264 3.39505 15.3126C3.28015 15.2988 3.16908 15.2625 3.0682 15.2058C2.96731 15.1491 2.87859 15.073 2.80709 14.982C2.73559 14.891 2.68271 14.7868 2.65148 14.6754C2.62024 14.564 2.61126 14.4475 2.62505 14.3326C2.87516 12.3565 3.87046 10.5506 5.40755 9.28382L3.39505 7.25382C3.2517 7.08643 3.1768 6.87111 3.1853 6.6509C3.19381 6.43068 3.2851 6.22178 3.44093 6.06595C3.59677 5.91012 3.80566 5.81883 4.02588 5.81032C4.2461 5.80182 4.46141 5.87672 4.6288 6.02007L6.91255 8.29507C7.7607 7.86517 8.6797 7.59244 9.62505 7.49007V4.37507C9.62505 4.14301 9.71724 3.92045 9.88133 3.75635C10.0454 3.59226 10.268 3.50007 10.5001 3.50007C10.7321 3.50007 10.9547 3.59226 11.1188 3.75635C11.2829 3.92045 11.3751 4.14301 11.3751 4.37507V7.49007C12.3204 7.59244 13.2394 7.86517 14.0876 8.29507L16.3713 6.02007C16.5387 5.87672 16.754 5.80182 16.9742 5.81032C17.1944 5.81883 17.4033 5.91012 17.5592 6.06595C17.715 6.22178 17.8063 6.43068 17.8148 6.6509C17.8233 6.87111 17.7484 7.08643 17.6051 7.25382L15.5838 9.28382Z" fill="#F3F3F3"/>
</g>
</svg>
