<svg width="50" height="45" viewBox="0 0 56 56" fill="none" xmlns="http://www.w3.org/2000/svg">
<path d="M38.5447 31.9053C38.5445 35.2187 35.8581 37.9051 32.5447 37.9053H23.4558C22.343 37.9053 21.3013 37.6012 20.408 37.0732L38.5447 18.9375V31.9053ZM32.5447 1C35.8582 1.0002 38.5447 3.68642 38.5447 7V14.6943L18.2869 34.9512C17.7595 34.0583 17.4559 33.0174 17.4558 31.9053V7C17.4558 3.68629 20.1421 1 23.4558 1H32.5447Z" fill="#C4C4C4"/>
<path d="M43.8171 27.3606C44.9089 27.3606 45.8058 28.2491 45.6863 29.3342C44.7759 37.5833 38.226 44.1325 29.9773 45.0442V51.7444H35.9089C37.0006 51.7445 37.8853 52.6292 37.8855 53.7209C37.8855 54.8128 37.0007 55.6984 35.9089 55.6985H20.0925C19.0006 55.6985 18.115 54.8128 18.115 53.7209C18.1151 52.6292 19.0007 51.7444 20.0925 51.7444H26.0232V45.0442C22.4242 44.6462 19.1489 43.1746 16.5242 40.9573L19.3327 38.1487C21.705 40.0569 24.7193 41.1995 28.0007 41.1995C34.9746 41.1995 40.7439 36.0416 41.7009 29.3323C41.8551 28.2513 42.7252 27.3606 43.8171 27.3606ZM12.1843 27.3606C13.2762 27.3606 14.1464 28.2513 14.3005 29.3323C14.6589 31.8447 15.6921 34.1396 17.2107 36.0276L14.4021 38.8362C12.184 36.2109 10.7125 32.9344 10.3152 29.3342C10.1956 28.2491 11.0925 27.3606 12.1843 27.3606Z" fill="#C4C4C4"/>
<path d="M54.3606 1L1.6394 53.7212" stroke="#CC3B33" stroke-width="1.5" stroke-linecap="round"/>
</svg>
