<svg width="50" height="45" viewBox="0 0 63 63" fill="none" xmlns="http://www.w3.org/2000/svg">
<path d="M49.875 24.9375C51.3247 24.9375 52.5 26.1128 52.5 27.5625V36.75C52.5 43.9987 46.6237 49.875 39.375 49.875H34.125V57.75C34.125 59.1997 32.9497 60.375 31.5 60.375C30.0503 60.375 28.875 59.1997 28.875 57.75V49.875H23.625C16.3763 49.875 10.5 43.9987 10.5 36.75V27.5625C10.5 26.1128 11.6753 24.9375 13.125 24.9375C14.5747 24.9375 15.75 26.1128 15.75 27.5625V36.75C15.75 41.0992 19.2758 44.625 23.625 44.625H39.375C43.7242 44.625 47.25 41.0992 47.25 36.75V27.5625C47.25 26.1128 48.4253 24.9375 49.875 24.9375ZM31.5 2.625C37.299 2.625 42 7.32601 42 13.125V34.125C42 37.0245 39.6495 39.375 36.75 39.375H26.25C23.3505 39.375 21 37.0245 21 34.125V13.125C21 7.32601 25.701 2.625 31.5 2.625Z" fill="#C4C4C4"/>
</svg>
