<svg width="28" height="32" viewBox="0 0 28 32" fill="none" xmlns="http://www.w3.org/2000/svg">
<g id="Frame">
<path id="Vector" d="M7 10.6666V9.33331C7 4.91503 10.134 1.33331 14 1.33331C17.866 1.33331 21 4.91503 21 9.33331V10.6666H23.3333C23.9777 10.6666 24.5 11.2636 24.5 12V28C24.5 28.7364 23.9777 29.3333 23.3333 29.3333H4.66667C4.02234 29.3333 3.5 28.7364 3.5 28V12C3.5 11.2636 4.02234 10.6666 4.66667 10.6666H7ZM22.1667 13.3333H5.83333V26.6666H22.1667V13.3333ZM12.8333 20.9765C12.1359 20.5154 11.6667 19.6537 11.6667 18.6666C11.6667 17.1938 12.7113 16 14 16C15.2887 16 16.3333 17.1938 16.3333 18.6666C16.3333 19.6537 15.8641 20.5154 15.1667 20.9765V24H12.8333V20.9765ZM9.33333 10.6666H18.6667V9.33331C18.6667 6.38779 16.5773 3.99998 14 3.99998C11.4227 3.99998 9.33333 6.38779 9.33333 9.33331V10.6666Z" fill="#D9D9D9"/>
</g>
</svg>
