<svg width="254" height="254" viewBox="0 0 254 254" fill="none" xmlns="http://www.w3.org/2000/svg">
<rect width="254" height="254" rx="127" fill="#595959"/>
<path d="M160.429 166.814H152V158.451C152 151.522 146.34 145.906 139.357 145.906H114.071C107.089 145.906 101.429 151.522 101.429 158.451V166.814H93V158.451C93 146.903 102.434 137.543 114.071 137.543H139.357C150.994 137.543 160.429 146.903 160.429 158.451V166.814ZM126.714 129.179C112.749 129.179 101.429 117.946 101.429 104.09C101.429 90.233 112.749 79 126.714 79C140.679 79 152 90.233 152 104.09C152 117.946 140.679 129.179 126.714 129.179ZM126.714 120.816C136.024 120.816 143.571 113.327 143.571 104.09C143.571 94.8519 136.024 87.3632 126.714 87.3632C117.404 87.3632 109.857 94.8519 109.857 104.09C109.857 113.327 117.404 120.816 126.714 120.816Z" fill="#D9D9D9"/>
</svg>
