<svg width="50" height="45" viewBox="0 0 54 51" fill="none" xmlns="http://www.w3.org/2000/svg">
<path d="M41.166 18.5168C41.166 18.1655 41.3503 17.84 41.6515 17.6593L51.7591 11.5947C52.4256 11.1948 53.2736 11.6749 53.2736 12.4522V40.3996C53.2736 41.1769 52.4256 41.657 51.7591 41.2571L41.6515 35.1925C41.3503 35.0118 41.166 34.6863 41.166 34.335V18.5168Z" fill="#C4C4C4"/>
<path d="M0 12.686C0 11.5815 0.895431 10.686 2 10.686H34.7443C36.9534 10.686 38.7443 12.4769 38.7443 14.686V40.1658C38.7443 41.2703 37.8488 42.1658 36.7443 42.1658H4C1.79086 42.1658 0 40.3749 0 38.1658V12.686Z" fill="#C4C4C4"/>
<path d="M50.8517 1L2.42139 49.4303" stroke="#CC3B33" stroke-width="1.5" stroke-linecap="round"/>
</svg>
