<svg width="50" height="45" viewBox="0 0 54 32" fill="none" xmlns="http://www.w3.org/2000/svg">
<path d="M41.4668 7.83074C41.4668 7.47948 41.6511 7.15397 41.9523 6.97325L52.0599 0.908697C52.7264 0.508783 53.5744 0.988896 53.5744 1.76619V29.7135C53.5744 30.4908 52.7264 30.9709 52.0599 30.571L41.9523 24.5065C41.6511 24.3257 41.4668 24.0002 41.4668 23.649V7.83074Z" fill="#C4C4C4"/>
<path d="M0.300781 2C0.300781 0.89543 1.19621 0 2.30078 0H35.045C37.2542 0 39.045 1.79086 39.045 4V29.4797C39.045 30.5843 38.1496 31.4797 37.045 31.4797H4.30078C2.09164 31.4797 0.300781 29.6889 0.300781 27.4797V2Z" fill="#C4C4C4"/>
</svg>
