<svg width="130" height="90" viewBox="0 0 147 95" fill="none" xmlns="http://www.w3.org/2000/svg">
<rect width="147" height="92" rx="11" fill="#A42E27"/>
<path d="M69.7295 81.603V82.9829H62.9531V81.603H69.7295ZM63.2959 70.186V82.9829H61.5996V70.186H63.2959ZM68.833 75.688V77.0679H62.9531V75.688H68.833ZM69.6416 70.186V71.5747H62.9531V70.186H69.6416ZM72.9287 70.186L76.0049 75.0903L79.0811 70.186H81.0586L77.0156 76.5229L81.1553 82.9829H79.1602L76.0049 77.9819L72.8496 82.9829H70.8545L74.9941 76.5229L70.9512 70.186H72.9287ZM84.9346 70.186V82.9829H83.2383V70.186H84.9346ZM92.4844 70.186V82.9829H90.8145V70.186H92.4844ZM96.5977 70.186V71.5747H86.71V70.186H96.5977Z" fill="white"/>
<path d="M86.1348 13.1025C89.3738 13.1026 91.9998 15.7278 92 18.9668V47.2812C92 50.5203 87.3484 53.1463 86.1348 53.1465L69.9551 57.1914C66.7159 57.1914 64.0899 54.5653 64.0898 51.3262V51.124H61.8652C58.626 51.124 56 48.498 56 45.2588V20.9893C56.0002 17.7502 58.6261 15.124 61.8652 15.124H64.3799C65.146 12.7764 67.3517 11.0801 69.9551 11.0801L86.1348 13.1025ZM69.9551 14.7197C68.7266 14.7198 67.7307 15.7159 67.7305 16.9443V51.3262C67.7305 52.5548 68.7265 53.5507 69.9551 53.5508L86.1348 49.5059C86.3377 49.5055 88.3594 48.5097 88.3594 47.2812V18.9668C88.3592 17.7383 87.3633 16.7422 86.1348 16.7422L69.9551 14.7197ZM61.8652 18.7646C60.6367 18.7646 59.6408 19.7607 59.6406 20.9893V45.2588C59.6406 46.4874 60.6366 47.4834 61.8652 47.4834H64.0898V18.7646H61.8652ZM72.1797 31.3037C73.2965 31.3038 74.202 32.2094 74.2021 33.3262C74.2021 34.4431 73.2966 35.3485 72.1797 35.3486C71.0627 35.3486 70.1572 34.4431 70.1572 33.3262C70.1574 32.2093 71.0628 31.3037 72.1797 31.3037Z" fill="white"/>
</svg>
